<?xml version="1.0" encoding="UTF-8"?>
<svg width="23.233mm" height="29mm" version="1.1" viewBox="0 0 23.233 29" xmlns="http://www.w3.org/2000/svg" xmlns:cc="http://creativecommons.org/ns#" xmlns:dc="http://purl.org/dc/elements/1.1/" xmlns:rdf="http://www.w3.org/1999/02/22-rdf-syntax-ns#">
 <metadata>
  <rdf:RDF>
   <cc:Work rdf:about="">
    <dc:format>image/svg+xml</dc:format>
    <dc:type rdf:resource="http://purl.org/dc/dcmitype/StillImage"/>
    <dc:title/>
   </cc:Work>
  </rdf:RDF>
 </metadata>
 <g transform="translate(-84.933 -114.53)" fill="#fff" fill-opacity=".93173" stroke-opacity="0">
  <path d="m86.686 127.64c2.3248-1.1122 4.5306-2.4571 6.7519-3.7574 1.2015-0.76804 2.415-1.5088 3.505-2.432 1.0615-0.88848 2.1542-1.7457 3.3218-2.4909 0.79094-0.51383 1.6009-1.0016 2.4142-1.48 0.1909-0.11232 0.76487-0.44689 0.57687-0.32979-0.59363 0.36974-1.196 0.72526-1.794 1.0879 0.12288-0.0119 0.24768-0.0603 0.36864-0.0356 0.50251 0.10262 0.72107 0.80626 0.842 1.197 0.21494 0.69455 0.25887 1.0962 0.38445 1.8217 0.30966 2.2156 0.32578 4.4584 0.31208 6.6913 0.0185 1.3326-0.0704 2.6665-0.0219 3.9984 0.044 0.83123 0.0605 1.6627 0.20837 2.4832 0.18308 0.88912 0.34132 1.7787 0.42501 2.6831 0.0109 0.49303 0.0774 0.97833 0.14934 1.4651l2.4454-1.2957c-0.0831-0.47371-0.15254-0.94785-0.1907-1.4277-0.1153-0.90412-0.26724-1.8009-0.42937-2.6975-0.1213-0.80739-0.15212-1.6239-0.22461-2.4367-0.0557-1.3134-0.0277-2.6289-0.0716-3.9428-0.0747-2.2394-0.14335-4.4812-0.3525-6.713-0.10323-0.6758-0.17089-1.2358-0.33893-1.8965-0.1352-0.53155-0.35342-1.2908-0.94224-1.5258-0.14403-0.0575-0.30941-0.0216-0.46412-0.0324-1.9464 1.0695-3.9058 2.1244-5.7618 3.3479-1.1584 0.77576-2.2522 1.644-3.3301 2.5273-1.072 0.87899-2.2497 1.6056-3.4144 2.3542 0.45041-0.25207 0.89508-0.51468 1.3512-0.75621 0.3112-0.16478-0.60902 0.35373-0.91621 0.52587-0.77187 0.43251-1.5545 0.87744-2.3672 1.2312-0.07941 0.0346-0.16405 0.0556-0.24608 0.0835l-2.1908 1.7524z"/>
  <path d="m101.46 118.95c-0.25383 0.5058-0.56654 0.97854-0.86193 1.4618-0.3831 0.53053-0.71275 1.0933-0.93444 1.7096-0.22468 0.53681-0.41498 1.0798-0.55216 1.6456-0.15534 0.59556-0.35081 1.1753-0.61787 1.73-0.27269 0.60887-0.55241 1.2159-0.77759 1.8444-0.25603 0.57841-0.40248 1.1953-0.63817 1.7809-0.26573 0.6164-0.53129 1.2336-0.74008 1.8719-0.23723 0.68932-0.55143 1.3404-0.90815 1.9744-0.60035 1.103-1.2537 2.1677-1.98 3.1918-0.78308 1.1527-1.7535 2.1556-2.6145 3.2473-0.81802 1.1304-1.9172 1.9854-3.0138 2.826 0 0 2.451-0.97956 2.451-0.97956 1.0982-0.86471 2.1776-1.7582 3.0105-2.8945 0.85352-1.0871 1.7976-2.1021 2.5781-3.2459 0.74054-1.0437 1.3895-2.1408 2.0335-3.246 0.36538-0.65231 0.69911-1.3219 0.92325-2.0378 0.21651-0.63323 0.49397-1.2428 0.74688-1.862 0.2158-0.59263 0.3952-1.1981 0.63505-1.7822 0.23938-0.61794 0.50794-1.2234 0.78512-1.8252 0.25291-0.57423 0.45844-1.164 0.59914-1.7764 0.14897-0.55816 0.37865-1.0835 0.5789-1.6243 0.2361-0.59518 0.58007-1.1308 0.94408-1.6557 0.30588-0.48908 0.58726-0.99664 0.92644-1.4628l-2.5732 1.1089z"/>
 </g>
</svg>
