<?xml version="1.0" encoding="UTF-8"?>
<svg width="45.974mm" height="49.531mm" version="1.1" viewBox="0 0 45.974 49.531" xmlns="http://www.w3.org/2000/svg" xmlns:cc="http://creativecommons.org/ns#" xmlns:dc="http://purl.org/dc/elements/1.1/" xmlns:rdf="http://www.w3.org/1999/02/22-rdf-syntax-ns#">
 <metadata>
  <rdf:RDF>
   <cc:Work rdf:about="">
    <dc:format>image/svg+xml</dc:format>
    <dc:type rdf:resource="http://purl.org/dc/dcmitype/StillImage"/>
    <dc:title/>
   </cc:Work>
  </rdf:RDF>
 </metadata>
 <g transform="translate(-88.847 -36.357)">
  <g fill="none" stroke="#000" stroke-width=".26458px">
   <path d="m111.83 71.957-13.422-7.1857 13.474-28.323-22.885 23.954 2.2805 5.8374 7.1301-1.4688"/>
   <path d="m91.281 66.24 20.505 19.341"/>
   <path d="m111.83 71.957 13.422-7.1857-13.474-28.323 22.885 23.954-2.2805 5.8374-7.1301-1.4688"/>
   <path d="m132.39 66.24-20.6 19.341 0.0472-13.625"/>
  </g>
  <g>
   <g transform="translate(0 2.8348)" aria-label="8">
    <path d="m114.58 58.71q0 0.99735-0.78032 1.6588-0.77514 0.66146-1.9534 0.66146-1.2506 0-1.9947-0.64595-0.73897-0.64595-0.73897-1.6536 0-0.64079 0.37207-1.1575 0.37207-0.52193 1.049-0.82682v-0.03101q-0.62011-0.33073-0.91983-0.72347-0.29456-0.39274-0.29456-0.98185 0-0.86816 0.71313-1.4469 0.71314-0.57877 1.8138-0.57877 1.1524 0 1.8397 0.55294 0.68729 0.55294 0.68729 1.4056 0 0.52193-0.32556 1.0284-0.32556 0.50126-0.95601 0.78548v0.03101q0.72347 0.31006 1.1059 0.76481 0.38241 0.45475 0.38241 1.1575zm-1.2247-3.7569q0-0.55294-0.42891-0.8785-0.42375-0.33073-1.0852-0.33073-0.65112 0-1.0697 0.31006-0.41341 0.31006-0.41341 0.83716 0 0.37207 0.2067 0.64595 0.21187 0.26872 0.63562 0.48059 0.1912 0.09302 0.54777 0.24288 0.36173 0.14986 0.70279 0.24805 0.5116-0.34106 0.70797-0.70796 0.19637-0.3669 0.19637-0.84749zm0.16019 3.855q0-0.47542-0.21187-0.75964-0.2067-0.28939-0.81648-0.57877-0.24288-0.11369-0.53227-0.21187-0.28939-0.09819-0.76997-0.27388-0.46509 0.25321-0.74931 0.68729-0.27905 0.43408-0.27905 0.98185 0 0.69763 0.48059 1.1524t1.2196 0.45475q0.75447 0 1.204-0.38757 0.45475-0.38757 0.45475-1.0645z" stroke-width=".26458"/>
   </g>
   <path d="m128.77 57.515c-0.73651-1.1529-1.3637-1.9342-1.8994-2.3765-0.52376-0.43318-1.0058-0.58095-1.4549-0.44752-0.4602 0.13673-0.649 0.49323-0.56182 1.0794 0.0912 0.6007 0.46757 1.4798 1.1497 2.6649 0.71962 1.2503 1.3907 2.1687 1.9962 2.7177 0.6183 0.56256 1.1829 0.75138 1.6808 0.56022 0.49858-0.19124 0.65453-0.65561 0.47556-1.3792-0.16978-0.70152-0.63919-1.6497-1.3861-2.819zm-1.9046-1.7175c0.20016 0.20522 0.40617 0.4576 0.61953 0.75859 0.21889 0.30683 0.46942 0.68512 0.75309 1.138 0.2849 0.45473 0.52497 0.86012 0.71807 1.2138 0.19772 0.35782 0.34232 0.67411 0.43319 0.94737 0.0915 0.27224 0.12157 0.49371 0.0893 0.66315-0.0304 0.16997-0.13323 0.28805-0.30884 0.35355-0.17438 0.06504-0.3592 0.05367-0.55322-0.03416-0.19127-0.08841-0.39849-0.25171-0.62046-0.48861-0.20662-0.22004-0.43503-0.51812-0.68462-0.89164-0.24407-0.36928-0.4946-0.77303-0.75155-1.2095-0.27692-0.47135-0.4952-0.86246-0.6567-1.1767-0.15931-0.31044-0.2763-0.5928-0.35181-0.84789-0.0713-0.23692-0.0878-0.4276-0.0506-0.57304 0.0391-0.145 0.14492-0.24359 0.31775-0.29633 0.16179-0.04929 0.32788-0.03736 0.49981 0.03578 0.17161 0.07334 0.35366 0.2089 0.54708 0.40768z"/>
   <text x="121.8749" y="107.30872" fill="#000000" font-family="sans-serif" font-size="10.583px" stroke-width=".26458" style="line-height:1.25" xml:space="preserve"><tspan x="121.8749" y="107.30872" stroke-width=".26458"/></text>
  </g>
  <g>
   <path d="m96.362 61.288-2.8164-1.0732 0.60489-0.99622c0.36549-0.20928 0.72929-0.41762 1.0914-0.62498 0.36234-0.20571 0.70835-0.41418 1.0382-0.62537 0.68794-0.43702 1.1914-0.795 1.5138-1.0758 0.32254-0.28236 0.59456-0.61282 0.81633-0.99072 0.20134-0.34311 0.28923-0.63554 0.26453-0.87818-0.02112-0.24416-0.1529-0.41219-0.39544-0.50476-0.16108-0.06146-0.36328-0.08151-0.60686-0.06016-0.24392 0.02135-0.51371 0.09401-0.80986 0.21824l-0.02673-0.01019 0.55396-0.91387c0.18628-0.05289 0.40844-0.08127 0.66643-0.08517 0.25945-0.0033 0.48666 0.03238 0.68192 0.10689 0.4028 0.15373 0.62469 0.43405 0.66581 0.84261 0.0431 0.40792-0.09652 0.89-0.42128 1.4485-0.14701 0.25296-0.30482 0.48294-0.47336 0.68978-0.1656 0.20525-0.34457 0.39345-0.53696 0.5645-0.1805 0.16147-0.37242 0.31557-0.57582 0.46228-0.20222 0.14774-0.43773 0.30798-0.70678 0.48085-0.38722 0.25035-0.77736 0.49028-1.1704 0.71961-0.39314 0.2274-0.76111 0.43909-1.1036 0.63483l2.2233 0.8473z"/>
   <path d="m102.02 73.584c-0.13371-0.30443-0.18633-0.58335-0.15235-0.83449 0.0354-0.26238 0.15726-0.46475 0.36961-0.60158 0.2411-0.1513 0.57914-0.22758 1.015-0.22455 0.44249 0.0054 0.99344 0.10652 1.6484 0.3042 0.61393 0.18529 1.2156 0.41333 1.7988 0.68177 0.57888 0.26303 1.066 0.51666 1.4602 0.75959l-3e-3 0.99622-0.098-0.03028c-0.38623-0.27289-0.84492-0.54836-1.3749-0.82474-0.53581-0.27631-1.0577-0.4928-1.5591-0.6464-0.33435-0.10245-0.64731-0.1671-0.93696-0.19404-0.29076-0.02797-0.52836 0.0047-0.71193 0.09604-0.15107 0.0777-0.24146 0.19535-0.27293 0.35102-0.0349 0.15018-0.0108 0.33904 0.0701 0.56394 0.0762 0.21227 0.19301 0.40343 0.34973 0.57583 0.14973 0.1678 0.32902 0.3194 0.53847 0.45627 0.23096 0.1559 0.49585 0.29707 0.79626 0.42469 0.29623 0.12835 0.62249 0.2493 0.98054 0.36349 0.34372 0.10959 0.67518 0.20248 0.99538 0.27892 0.31877 0.07575 0.59611 0.13806 0.83135 0.18683l0.0649 2.0693-4.3039-1.4154-0.19736-0.45339 3.5039 1.145-0.14117-1.0837c-0.16012-0.0437-0.32382-0.09052-0.49112-0.1404-0.16687-0.0498-0.31144-0.09435-0.4339-0.13372-0.44783-0.14401-0.84457-0.29166-1.1929-0.44407-0.34903-0.15084-0.68423-0.32876-1.0086-0.53589-0.34744-0.22232-0.64887-0.46536-0.90568-0.73246-0.26522-0.27577-0.47817-0.59264-0.63865-0.95804z"/>
   <path d="m115.48 76.628c-0.16493-0.03072-0.30168-0.09457-0.41027-0.19224-0.11173-0.10078-0.16837-0.26506-0.16774-0.49734 8.7e-4 -0.24056 0.0757-0.49423 0.22845-0.75964 0.15866-0.27507 0.3846-0.54921 0.67971-0.81976 0.34018-0.30996 0.74168-0.59039 1.2011-0.83629 0.45972-0.24408 0.95542-0.4485 1.4812-0.61051 0.53576-0.16508 1.0424-0.2749 1.5153-0.32933 0.46472-0.05674 0.82774-0.07489 1.0922-0.0556l-0.42248 0.96958-0.0855 0.02692c-0.25661-0.06013-0.59052-0.07524-1.003-0.04352-0.42122 0.0323-0.85215 0.11655-1.2874 0.25271-0.25756 0.08059-0.53952 0.19769-0.84339 0.35041-0.30105 0.15151-0.55078 0.31331-0.74731 0.48395-0.20278 0.17833-0.35488 0.35017-0.45815 0.51549-0.10546 0.16256-0.16774 0.34203-0.1884 0.53565-0.0197 0.18465 0.0119 0.31718 0.0933 0.4007 0.0757 0.08525 0.18871 0.13253 0.33861 0.14392 0.14771 0.01346 0.32953-0.0048 0.54578-0.05349 0.2153-0.04694 0.44845-0.11113 0.70099-0.19328l0.45972-0.1491-0.15084 0.50079-0.34111 0.11182c-0.49633 0.16256-0.90441 0.35066-1.2177 0.56119-0.31076 0.20881-0.4763 0.41451-0.5004 0.61365-0.0103 0.08559 0.016 0.14703 0.0779 0.18499 0.061 0.03934 0.14959 0.05764 0.26569 0.05591 0.12048-0.0038 0.25099-0.02209 0.39181-0.05522 0.13989-0.03279 0.30011-0.07938 0.48068-0.13978 0.27539-0.09181 0.57488-0.21502 0.90128-0.37102 0.32922-0.15704 0.65249-0.33202 0.97169-0.52702l0.0441-0.01484-0.2103 0.50113c-0.21937 0.11873-0.50071 0.25436-0.84401 0.40622-0.34423 0.15358-0.66969 0.28198-0.97857 0.38552-0.30481 0.1025-0.57144 0.17912-0.8002 0.23055-0.23127 0.05177-0.44032 0.08042-0.62746 0.08525-0.20404 0.0042-0.35925-0.02278-0.46504-0.08214-0.10827-0.0604-0.1621-0.15876-0.15928-0.29612 3e-3 -0.19466 0.15022-0.41899 0.44595-0.67232 0.30105-0.2585 0.65718-0.47801 1.0634-0.65403l7e-3 -0.04038c-0.1596 0.03728-0.34111 0.06558-0.5464 0.08387-0.20842 0.02105-0.38555 0.01898-0.53044-0.0072z"/>
  </g>
  <g fill="#f2f2f2" fill-opacity=".93173" stroke-opacity="0">
   <path transform="matrix(.26458 0 0 .26458 88.847 36.357)" d="m61.748 120.33-24.677-13.256 2.9112-6.0799c1.6011-3.344 12.786-26.844 24.856-52.222 12.069-25.378 22.048-46.03 22.176-45.893 0.12724 0.13731 11.344 23.62 24.926 52.184 18.55 39.012 24.58 52.008 24.233 52.23-1.4919 0.95646-49.206 26.365-49.45 26.333-0.16331-0.0214-11.402-6.0042-24.974-13.295zm28.796-16.664c2.0074-0.55768 4.5101-2.3358 5.595-3.9752 0.89214-1.3481 0.99984-1.8283 0.99984-4.4572 0-3.384-0.38004-4.136-3.1319-6.1967l-1.6475-1.2338 1.456-1.2463c2.5043-2.1436 3.4587-5.599 2.3065-8.3512-0.63279-1.5115-3.0032-3.621-4.7401-4.2181-0.76228-0.2621-2.752-0.48238-4.4217-0.48953-2.6767-0.01146-3.2873 0.11371-5.1631 1.0584-3.031 1.5265-4.2303 3.1676-4.4131 6.0385-0.18252 2.8664 0.56625 4.56 2.6725 6.0446l1.535 1.0819-1.3639 0.81333c-4.7857 2.8538-5.0021 10.525-0.38313 13.582 0.75222 0.49779 1.978 1.1228 2.7239 1.3888 1.5953 0.56904 6.1734 0.66113 7.9757 0.16044z"/>
   <path transform="matrix(.26458 0 0 .26458 88.847 36.357)" d="m87.317 171.96c0-6.8589 0.10578-18.01 0.23506-24.78l0.23507-12.309 24.648-13.195c13.556-7.2574 24.982-13.242 25.391-13.3 0.62996-0.0886 24.81 4.7514 25.046 5.0134 0.0657 0.0727-60.659 57.198-72.545 68.245l-3.0094 2.797zm19.464-14.488c3.2585-1.1218 7.3201-2.9761 7.3263-3.3449 3e-3 -0.15964 0.1051-0.66456 0.2276-1.122 0.2106-0.78646 0.0484-0.74425-2.9765 0.77496-4.9304 2.4762-8.6846 3.3191-8.6846 1.9499 0-0.87456 2.6717-2.8098 5.1774-3.7502 2.2149-0.83129 2.7263-1.1755 3.0309-2.0401 0.2015-0.57203 0.31036-1.0961 0.2419-1.1645-0.0685-0.0684-0.79152 0.11088-1.6068 0.39853-2.7428 0.96773-4.9652 1.2238-5.7641 0.6642-2.1364-1.4964 0.60359-5.1954 5.5207-7.4531 3.0773-1.413 5.9097-2.0207 8.8462-1.8981l2.2324 0.0932 0.7825-1.5858c0.43037-0.87217 0.79197-1.7866 0.80357-2.0322 0.0486-1.0288-5.9092-0.27394-10.872 1.3775-7.3811 2.4564-12.679 7.1864-12.679 11.321 0 1.9104 0.94024 2.7069 3.1953 2.7069h1.7372l-1.6168 1.1495c-1.5992 1.137-2.9516 2.7832-2.9562 3.5983-0.0013 0.23151 0.27047 0.69375 0.60393 1.0272 0.80315 0.80315 3.983 0.51635 7.4294-0.67009z"/>
   <path transform="matrix(.26458 0 0 .26458 88.847 36.357)" d="m151.07 109.47c-7.0714-1.464-12.89-2.6921-12.93-2.7291-0.27322-0.25287-48.302-101.51-48.231-101.69 0.072261-0.17665 64.841 67.396 78.753 82.163l3.6631 3.8881-4.0533 10.39c-2.2293 5.7145-4.1188 10.445-4.1988 10.513-0.0801 0.0679-5.9313-1.0744-13.003-2.5384zm4.2243-14.035c2.6547-2.0882 0.84481-7.9472-5.2908-17.127-2.8628-4.2834-5.5124-7.2441-7.5535-8.4402-1.3273-0.77784-1.8978-0.90379-3.4277-0.75678-4.2523 0.40859-4.2212 4.2446 0.0998 12.332 3.7958 7.104 8.1893 12.707 11.055 14.099 1.7375 0.84385 3.968 0.79746 5.1171-0.10641z"/>
   <path transform="matrix(.26458 0 0 .26458 88.847 36.357)" d="m48.292 148.81c-23.705-22.357-37.252-35.376-36.964-35.522 0.24982-0.12687 5.9193-1.3342 12.599-2.683l12.145-2.4523 49.997 26.764 0.08662 17.14c0.04764 9.4268-0.03271 20.493-0.17857 24.593l-0.26519 7.453zm23.668 8.4752c0-0.75607-0.10228-2.5641-0.22728-4.0178l-0.22728-2.6432-3.8821-0.97236c-6.5502-1.6406-11.13-4.1198-12.473-6.7523-2.9368-5.7565 4.76-5.6361 14.572 0.22797l3.1301 1.8707 0.10957-1.7873c0.06026-0.98301 0.02764-2.0008-0.0725-2.2618-0.10014-0.26095-1.8369-1.2793-3.8596-2.263-8.8107-4.285-16.597-5.5319-19.075-3.0546-1.8006 1.8006-0.62953 6.0845 2.4875 9.0997 2.8882 2.7939 7.7419 5.2918 13.142 6.7633 1.6024 0.43663 1.6699 0.50965 1.9018 2.056 0.13224 0.8818 0.15809 1.6856 0.05746 1.7862s-2.8851-0.71767-6.1878-1.8184c-3.3027-1.1008-6.2107-2.0014-6.4624-2.0014-0.35965 0-0.34892 0.20732 0.05013 0.96894 0.44489 0.84908 1.4512 1.2873 8.1364 3.5433 4.1958 1.4159 7.91 2.587 8.2537 2.6025 0.49187 0.0222 0.625-0.26467 0.625-1.3465z"/>
   <path transform="matrix(.26458 0 0 .26458 88.847 36.357)" d="m5.6043 101.81c-2.219-5.7224-3.9613-10.595-3.8717-10.829 0.20008-0.5214 82.102-86.28 82.254-86.128 0.13073 0.13073-48.013 101.36-48.38 101.73-0.14069 0.14069-5.7998 1.3966-12.576 2.791s-12.561 2.6031-12.856 2.6862c-0.40849 0.11515-1.4939-2.3199-4.5702-10.253zm23.964-9.1541 0.93561-1.719-1.3253-0.47443c-0.72891-0.26094-2.5788-0.95092-4.1109-1.5333l-2.7856-1.0589 3.5026-2.0236c7.9089-4.5693 11.779-7.9394 13.881-12.088 1.3848-2.7329 1.4675-5.6616 0.19804-7.0128-1.0083-1.0733-3.5576-1.6922-5.569-1.352-1.1981 0.20262-1.5771 0.50038-2.4652 1.9369-0.57721 0.93361-0.96687 1.7801-0.86592 1.881 0.10095 0.10095 0.61808 0.01832 1.1492-0.18359 1.4266-0.54238 3.862-0.44593 4.7682 0.18883 2.1382 1.4976-0.11199 5.8786-4.8825 9.5061-1.2977 0.98677-4.6094 3.1323-7.3594 4.7678-4.5753 2.7211-5.0864 3.1298-6.0168 4.8111-0.55921 1.0106-0.95028 1.9039-0.86903 1.9851 0.22353 0.22353 10.042 4.0209 10.49 4.0568 0.21432 0.01721 0.8107-0.74224 1.3253-1.6877z"/>
   <path transform="matrix(.26458 0 0 .26458 88.847 36.357)" d="m85.689 85.311c-2.9498-1.3845-4.0862-2.6288-4.0862-4.4741 0-1.6869 0.81099-2.8045 2.6366-3.6335 2.4465-1.111 5.2946-0.66431 7.0674 1.1084 0.82086 0.82086 1.0103 1.3234 1.0103 2.6802 0 1.9583-0.80028 3.8342-2.0578 4.8233-1.1868 0.93352-1.6054 0.88732-4.5704-0.50435z"/>
   <path transform="matrix(.26458 0 0 .26458 88.847 36.357)" d="m84.282 100.32c-0.58928-0.27537-1.5536-1.013-2.1429-1.6391-0.98762-1.0493-1.0714-1.3413-1.0714-3.732 0-2.2883 0.11732-2.7475 0.99666-3.9003 1.5539-2.0373 2.098-2.1968 4.6046-1.3504 2.9887 1.0093 5.1879 2.369 5.8254 3.6017 1.0973 2.122 0.37944 5.0193-1.5913 6.4226-1.4328 1.0202-5.023 1.3442-6.6209 0.5975z"/>
   <path transform="matrix(.26458 0 0 .26458 88.847 36.357)" d="m148.85 91.074c-3.2568-2.9761-10.109-14.67-10.109-17.252 0-2.292 2.1446-2.5048 4.49-0.44548 1.6297 1.4309 6.4802 8.737 8.564 12.9 1.6809 3.3577 1.945 4.837 1.0276 5.7544-0.96024 0.96025-2.2026 0.66111-3.9729-0.95663z"/>
  </g>
 </g>
</svg>
